<svg width="24" height="24" viewBox="0 0 24 24" fill="none" xmlns="http://www.w3.org/2000/svg">
<g clip-path="url(#clip0_9756_11634)">
<path d="M18.75 0H5.25C2.3505 0 0 2.3505 0 5.25V8.00002H24V5.25C24 2.3505 21.6495 0 18.75 0Z" fill="#82AFFF"/>
<path d="M0 18.75C0 21.6495 2.3505 24 5.25 24H18.75C21.6495 24 24 21.6495 24 18.75V16H0V18.75Z" fill="#73AF00"/>
<path d="M24 8.00024H0V16.0004H24V8.00024Z" fill="#EDBF4A"/>
<path d="M24 7.28955H0V8.2871H24V7.28955Z" fill="#FF4B55"/>
<path d="M24 15.7129H0V16.7104H24V15.7129Z" fill="#FF4B55"/>
<path d="M5.68017 5.99516C4.38717 5.99516 3.33914 4.94957 3.33914 3.66121C3.33914 2.36811 4.38717 1.31788 5.68017 1.31788C5.6851 1.31788 5.69002 1.31793 5.69494 1.31797C5.77102 1.319 5.79774 1.21785 5.73066 1.18189C5.3325 0.96852 4.8781 0.847723 4.395 0.851145C2.84789 0.862207 1.59122 2.14424 1.60758 3.6913C1.6238 5.22247 2.87555 6.46185 4.41516 6.46185C4.89164 6.46185 5.33963 6.34133 5.73277 6.13086C5.79966 6.09505 5.77261 5.99385 5.69677 5.99502C5.69124 5.99511 5.6857 5.99516 5.68017 5.99516Z" fill="#F5F5F5"/>
<path d="M7.51349 5.34978L7.40892 5.66328L7.07845 5.66586C7.03565 5.66619 7.01793 5.7208 7.05234 5.7462L7.31821 5.94252L7.21851 6.25761C7.20562 6.29839 7.25207 6.33214 7.28685 6.30725L7.55573 6.11506L7.8246 6.30725C7.85943 6.33214 7.90588 6.29839 7.89295 6.25761L7.79324 5.94252L8.05907 5.7462C8.09348 5.7208 8.07576 5.66619 8.03296 5.66586L7.70249 5.66328L7.59792 5.34978C7.58446 5.30919 7.52704 5.30919 7.51349 5.34978Z" fill="#F5F5F5"/>
<path d="M9.33864 5.34978L9.23411 5.66328L8.90364 5.66586C8.86084 5.66619 8.84313 5.7208 8.87753 5.7462L9.14341 5.94252L9.0437 6.25761C9.03081 6.29839 9.07722 6.33214 9.11205 6.30725L9.38092 6.11506L9.6498 6.30725C9.68463 6.33214 9.73108 6.29839 9.71814 6.25761L9.61844 5.94252L9.88431 5.7462C9.91872 5.7208 9.901 5.66619 9.8582 5.66586L9.52774 5.66328L9.42316 5.34978C9.40961 5.30919 9.35219 5.30919 9.33864 5.34978Z" fill="#F5F5F5"/>
<path d="M8.47927 3.03044L8.37473 3.34394L8.04427 3.34652C8.00147 3.34685 7.98375 3.40145 8.01816 3.42686L8.28403 3.62317L8.18433 3.93827C8.17144 3.97905 8.21784 4.0128 8.25267 3.98796L8.52155 3.79577L8.79042 3.98796C8.82525 4.01285 8.8717 3.9791 8.85877 3.93831L8.75906 3.62322L9.02494 3.42691C9.05934 3.4015 9.04163 3.34689 8.99883 3.34656L8.66836 3.34399L8.56378 3.03049C8.55023 2.98985 8.49281 2.98985 8.47927 3.03044Z" fill="#F5F5F5"/>
<path d="M10.4793 3.03044L10.3747 3.34394L10.0443 3.34652C10.0015 3.34685 9.98375 3.40145 10.0182 3.42686L10.284 3.62317L10.1843 3.93827C10.1714 3.97905 10.2178 4.0128 10.2527 3.98796L10.5215 3.79577L10.7904 3.98796C10.8253 4.01285 10.8717 3.9791 10.8588 3.93831L10.7591 3.62322L11.0249 3.42691C11.0593 3.4015 11.0416 3.34689 10.9988 3.34656L10.6684 3.34399L10.5638 3.03049C10.5502 2.98985 10.4928 2.98985 10.4793 3.03044Z" fill="#F5F5F5"/>
<path d="M11.202 5.34978L11.0974 5.66328L10.7669 5.66586C10.7241 5.66619 10.7064 5.7208 10.7408 5.7462L11.0067 5.94252L10.907 6.25761C10.8941 6.29839 10.9405 6.33214 10.9753 6.30725L11.2442 6.11506L11.5131 6.30725C11.5479 6.33214 11.5944 6.29839 11.5814 6.25761L11.4817 5.94252L11.7476 5.7462C11.782 5.7208 11.7643 5.66619 11.7215 5.66586L11.391 5.66328L11.2864 5.34978C11.2729 5.30919 11.2155 5.30919 11.202 5.34978Z" fill="#F5F5F5"/>
</g>
<defs>
<clipPath id="clip0_9756_11634">
<rect width="24" height="24" fill="white"/>
</clipPath>
</defs>
</svg>
