<svg width="28" height="28" viewBox="0 0 28 28" fill="none" xmlns="http://www.w3.org/2000/svg">
<path d="M17.2165 3.56557C17.425 3.68437 17.5197 3.93459 17.4421 4.1617L14.426 12.9885H21C21.1951 12.9885 21.3723 13.102 21.454 13.2791C21.5357 13.4562 21.507 13.6647 21.3804 13.8131L12.4114 24.3246C12.2556 24.5071 11.9921 24.5533 11.7835 24.4345C11.575 24.3157 11.4803 24.0655 11.5579 23.8384L14.5741 15.0116H8.00001C7.80495 15.0116 7.62769 14.8982 7.54599 14.721C7.46428 14.5439 7.49304 14.3354 7.61965 14.1871L16.5886 3.67548C16.7444 3.49291 17.008 3.44678 17.2165 3.56557Z" fill="#C6CDCE"/>
</svg>
