<svg width="20" height="20" viewBox="0 0 20 20" fill="none" xmlns="http://www.w3.org/2000/svg">
<path d="M5 17.5C6.25 16.1667 7.5 14.9728 7.5 13.5C7.5 12.0272 6.38071 10.8333 5 10.8333C3.61929 10.8333 2.5 12.0272 2.5 13.5C2.5 14.9728 3.75 16.1667 5 17.5ZM5 17.5H14.5833C15.7339 17.5 16.6667 16.5673 16.6667 15.4167C16.6667 14.2661 15.7339 13.3333 14.5833 13.3333H12.5M15 9.16667C16.25 7.83333 17.5 6.63943 17.5 5.16667C17.5 3.69391 16.3807 2.5 15 2.5C13.6193 2.5 12.5 3.69391 12.5 5.16667C12.5 6.63943 13.75 7.83333 15 9.16667ZM15 9.16667H12.0833C10.9327 9.16667 10 10.0994 10 11.25C10 12.4006 10.9327 13.3333 12.0833 13.3333H13" stroke="white" stroke-width="2" stroke-linecap="round" stroke-linejoin="round"/>
</svg>
