<svg width="24" height="24" viewBox="0 0 24 24" fill="none" xmlns="http://www.w3.org/2000/svg">
<g clip-path="url(#clip0_9756_11705)">
<g clip-path="url(#clip1_9756_11705)">
<rect width="32" height="24" transform="translate(-4)" fill="white"/>
<path fill-rule="evenodd" clip-rule="evenodd" d="M-4 0H28V24H-4V0Z" fill="#F7FCFF"/>
<path fill-rule="evenodd" clip-rule="evenodd" d="M-4 0V8H28V0H-4Z" fill="#C51918"/>
<path fill-rule="evenodd" clip-rule="evenodd" d="M-4 16V24H28V16H-4Z" fill="#409100"/>
<path fill-rule="evenodd" clip-rule="evenodd" d="M12.0201 8.62974L11.429 9.04746L11.6375 8.34746L11.0636 7.90564L11.7837 7.89074L12.0201 7.19995L12.2566 7.89074L12.9767 7.90564L12.4028 8.34746L12.6113 9.04746L12.0201 8.62974ZM9.52303 9.2425L8.93185 9.66022L9.14041 8.96023L8.56647 8.5184L9.28655 8.5035L9.52303 7.81272L9.7595 8.5035L10.4796 8.5184L9.90565 8.96023L10.1142 9.66022L9.52303 9.2425ZM6.98965 11.4985L7.58083 11.0808L8.17201 11.4985L7.96345 10.7985L8.53739 10.3567L7.8173 10.3418L7.58083 9.65102L7.34436 10.3418L6.62428 10.3567L7.19821 10.7985L6.98965 11.4985ZM6.95655 13.4638L6.36537 13.8815L6.57393 13.1815L6 12.7397L6.72008 12.7248L6.95655 12.034L7.19303 12.7248L7.91311 12.7397L7.33918 13.1815L7.54774 13.8815L6.95655 13.4638ZM16.4232 13.8815L17.0144 13.4638L17.6055 13.8815L17.397 13.1815L17.9709 12.7397L17.2508 12.7248L17.0144 12.034L16.7779 12.7248L16.0578 12.7397L16.6317 13.1815L16.4232 13.8815ZM16.2514 11.0808L15.6602 11.4985L15.8687 10.7985L15.2948 10.3567L16.0149 10.3418L16.2514 9.65102L16.4878 10.3418L17.2079 10.3567L16.634 10.7985L16.8425 11.4985L16.2514 11.0808ZM13.7471 9.66022L14.3382 9.2425L14.9294 9.66022L14.7209 8.96023L15.2948 8.5184L14.5747 8.5035L14.3382 7.81272L14.1018 8.5035L13.3817 8.5184L13.9556 8.96023L13.7471 9.66022ZM8.66735 16.7545L8.48302 16.0981C9.50307 15.8221 10.6741 15.6849 11.9965 15.6849C13.3188 15.6849 14.4898 15.8221 15.5099 16.0981L15.3256 16.7545C14.3694 16.4958 13.2597 16.3657 11.9965 16.3657C10.7333 16.3657 9.62348 16.4958 8.66735 16.7545ZM9.93057 15.7019C9.5236 15.7711 9.19075 15.3777 9.19075 15.3777L9.59452 15.2108C9.58175 14.9309 9.75058 14.7574 9.75058 14.7574C9.88715 14.8203 10.0735 15.164 10.0735 15.164H10.4395C10.4395 15.164 10.3376 15.6328 9.93057 15.7019ZM14.7401 15.4457C14.7401 15.4457 14.4073 15.8392 14.0003 15.77C13.5933 15.7009 13.4913 15.2321 13.4913 15.2321H13.8573C13.8573 15.2321 14.0437 14.8884 14.1803 14.8255C14.1803 14.8255 14.3491 14.999 14.3363 15.2789L14.7401 15.4457ZM11.9454 15.5773C11.5327 15.5891 11.2579 15.1532 11.2579 15.1532L11.6809 15.0442C11.7072 14.7652 11.8986 14.6169 11.8986 14.6169C12.0251 14.6982 12.1618 15.0645 12.1618 15.0645L12.5242 15.1154C12.5242 15.1154 12.358 15.5655 11.9454 15.5773Z" fill="#FFBB00"/>
<path fill-rule="evenodd" clip-rule="evenodd" d="M11.9583 13.6986C11.9583 13.6986 11.4893 14.7719 10.7506 14.8549C10.012 14.9379 9.63684 14.2445 9.63684 14.2445C9.63684 14.2445 9.58845 14.9656 8.71122 15.2436C7.834 15.5215 7.37207 14.411 7.37207 14.411C7.37207 14.411 7.82877 14.8195 8.53711 14.6415C9.24544 14.4635 9.52504 13.806 9.52504 13.806C9.52504 13.806 10.0493 14.4914 10.7506 14.1487C11.452 13.806 11.8401 13.3872 11.8401 12.9853V11.7835C11.8401 11.7835 11.6591 11.4719 11.3452 11.4719C11.0313 11.4719 10.9437 11.6928 10.9437 11.6928C10.9437 11.6928 10.8212 10.4425 11.9502 10.3652L11.9501 10.3622C11.9606 10.3625 11.971 10.3629 11.9813 10.3634C11.9916 10.3629 12.002 10.3625 12.0125 10.3622L12.0125 10.3652C13.1415 10.4425 13.019 11.6928 13.019 11.6928C13.019 11.6928 12.9314 11.4719 12.6174 11.4719C12.3035 11.4719 12.1226 11.7835 12.1226 11.7835V12.9853C12.1226 13.3872 12.5106 13.806 13.212 14.1487C13.9134 14.4914 14.4376 13.806 14.4376 13.806C14.4376 13.806 14.7172 14.4635 15.4255 14.6415C16.1339 14.8195 16.5906 14.411 16.5906 14.411C16.5906 14.411 16.1286 15.5215 15.2514 15.2436C14.3742 14.9656 14.3258 14.2445 14.3258 14.2445C14.3258 14.2445 13.9507 14.9379 13.212 14.8549C12.4733 14.7719 12.0044 13.6986 12.0044 13.6986L11.9813 12.282L11.9583 13.6986ZM11.9479 10.7019C11.4271 10.7019 11.3216 11.1428 11.3216 11.1428C11.7802 11.1428 11.9479 11.3427 11.9479 11.3427C11.9479 11.3427 12.2874 11.1428 12.6293 11.1428C12.6293 11.1428 12.4687 10.7019 11.9479 10.7019Z" fill="#FFBB00"/>
</g>
</g>
<defs>
<clipPath id="clip0_9756_11705">
<rect width="24" height="24" rx="6" fill="white"/>
</clipPath>
<clipPath id="clip1_9756_11705">
<rect width="32" height="24" fill="white" transform="translate(-4)"/>
</clipPath>
</defs>
</svg>
